<svg aria-hidden="true" style="position: absolute; width: 0; height: 0; overflow: hidden;"
  version="1.1" xmlns="http://www.w3.org/2000/svg" xmlns:xlink="http://www.w3.org/1999/xlink">
  <defs>
    <symbol id="icon-basket" viewBox="0 0 35 32">
      <path
        d="M33.354 5.864h-27.196l-0.404-4.504c-0.066-0.736-0.683-1.301-1.423-1.301h-2.902c-0.789 0-1.428 0.64-1.428 1.428s0.64 1.428 1.428 1.428h1.596c0.872 9.719-1.382-15.401 1.643 18.304 0.117 1.319 0.829 2.751 2.057 3.724-2.214 2.827-0.191 6.995 3.41 6.995 2.989 0 5.097-2.981 4.072-5.805h7.818c-1.024 2.82 1.080 5.805 4.072 5.805 2.388 0 4.331-1.943 4.331-4.331s-1.943-4.331-4.331-4.331h-15.953c-1.085 0-2.031-0.655-2.439-1.608l22.829-1.342c0.623-0.037 1.15-0.474 1.302-1.079l2.903-11.609c0.225-0.9-0.456-1.775-1.386-1.775zM10.135 29.083c-0.813 0-1.474-0.661-1.474-1.474s0.661-1.474 1.474-1.474c0.813 0 1.474 0.661 1.474 1.474s-0.661 1.474-1.474 1.474zM26.098 29.083c-0.813 0-1.474-0.661-1.474-1.474s0.661-1.474 1.474-1.474c0.813 0 1.474 0.661 1.474 1.474s-0.661 1.474-1.474 1.474zM29.32 17.538l-21.998 1.293-0.907-10.109h25.11l-2.204 8.816z"></path>
    </symbol>
    <symbol id="icon-logo" viewBox="0 0 32 32">
      <path d="M25.558 4.898l-20.694 20.658 1.507 1.51 20.694-20.659-1.507-1.51z"></path>
      <path d="M6.371 4.899l-1.507 1.51 20.694 20.659 1.507-1.51-20.694-20.659z"></path>
      <path
        d="M19.299 19.548c-2.939 2.939-4.346 6.992-3.861 11.119l2.118-0.249c-0.409-3.475 0.776-6.887 3.25-9.361 2.565-2.565 6.223-3.756 9.779-3.185l0.338-2.106c-4.231-0.679-8.577 0.736-11.625 3.784z"></path>
      <path
        d="M15.463 1.31l-2.128 0.154c0.236 3.274-0.973 6.496-3.322 8.845-2.31 2.341-5.442 3.517-8.811 3.311l-0.131 2.129c0.299 0.019 0.596 0.027 0.892 0.027 3.654 0 7.024-1.391 9.563-3.964 2.783-2.783 4.217-6.611 3.936-10.502z"></path>
      <path
        d="M16 0c-8.822 0-16 7.178-16 16s7.178 16 16 16c8.822 0 16-7.178 16-16s-7.178-16-16-16zM16 29.867c-7.646 0-13.867-6.22-13.867-13.867s6.22-13.867 13.867-13.867c7.646 0 13.867 6.22 13.867 13.867s-6.22 13.867-13.867 13.867z"></path>
    </symbol>
    <symbol id="icon-dropdown" viewBox="0 0 59 32">
      <path d="M29.333 32l-29.333-32h58.667l-29.333 32z"></path>
    </symbol>
    <symbol id="icon-prev" viewBox="0 0 17 32">
      <path
        d="M15.764 0.431l0.471 0.471-15.098 15.098 15.098 15.098-0.471 0.471-15.569-15.569 15.569-15.569z"></path>
    </symbol>
    <symbol id="icon-next" viewBox="0 0 17 32">
      <path
        d="M0.902 0.431l-0.471 0.471 15.098 15.098-15.098 15.098 0.471 0.471 15.569-15.569-15.569-15.569z"></path>
    </symbol>
    <symbol id="icon-up" viewBox="0 0 27 32">
      <path
        d="M13.538 0.375l12.735 12.311-0.855 0.885-11.265-10.889v29.318h-1.231v-29.318l-11.265 10.889-0.855-0.885 12.735-12.311z"></path>
    </symbol>
    <symbol id="icon-arrow" viewBox="0 0 44 32">
      <path stroke-linejoin="miter" stroke-linecap="butt" stroke-miterlimit="4"
        stroke-width="1.3333" d="M0.262 16h42.509M42.77 16l-12.811-14.667M42.77 16l-12.811 14.667"></path>
    </symbol>
    <symbol id="icon-ellipsis" viewBox="0 0 203 32">
      <path d="M32 16c0 8.837-7.163 16-16 16s-16-7.163-16-16c0-8.837 7.163-16 16-16s16 7.163 16 16z"></path>
      <path
        d="M117.333 16c0 8.837-7.164 16-16 16s-16-7.163-16-16c0-8.837 7.163-16 16-16s16 7.163 16 16z"></path>
      <path
        d="M202.667 16c0 8.837-7.164 16-16 16s-16-7.163-16-16c0-8.837 7.164-16 16-16s16 7.163 16 16z"></path>
    </symbol>
  </defs>
</svg>
  